@startuml
'https://plantuml.com/class-diagram

MessageFrame -u- SignalProtocolMain: Uses <
StorageHelper -- SignalProtocolMain: Uses <
Account -- SignalProtocolMain: Uses <
SignalProtocolStoreFullImplementation -u- SignalProtocolMain: Uses <


class Account{
    name: String
    deviceId: Integer
    identityKeyPair: IdentityKeyPair
    metadataStore: PreKeyMetadataAbstractStore
    signalProtocolStore: SignalProtocolStoreFullImplementation
    signalProtocolAddress: SignalProtocolAddress
    addContactToContactList(contact)
}

class MessageFrame{
   PreKeyResponse preKeyResponse
   ByteArray ciphertextMessage
   Integer ciphertextType
   Long timestamp
   String signalProtocolAddress
   Integer deviceId
}

class SignalProtocolMain{
  account: Account
  messageStorageHelper: StorageHelper
  createPreKeyBundle(preKeyResponse):PreKeyBundle
  createPreKeyResponseMessage(): MessageFrame
  processPreKeyResponseMessage(messageFrame, signalProtocolAddress)
  encryptMessage(message, signalProtocolAddress):MessageFrame
  decryptMessage(messageFrame, signalProtocolAddress): String
  createSession(preKeyBundle, signalProtocolAddress)
  addContact(firstName, lastName, signalProtocolAddress, deviceId)
  extractContactFromFrame(messageFrame):Contact
  getFingerPrint(contact)
  verifyContact(contact)
}

class StorageHelper{
    mContext: Context
    mSharedPreferenceName: String
    storeAllInformationInSharedPreferences(account)
}

class SignalProtocolStoreFullImplementation{
    identityKeyStore: IdentityKeyStoreFullImplementation
    preKeyStore: PreKeyStoreFullImplementation
    senderKeyStore: SenderKeyStoreFullImlementation
    sessionStore: SessionStoreFullImplementation
    signedPreKeyStore: SignedPreKeyStoreFullImplementation
}

@enduml